<svg height="457pt" viewBox="-97 0 457 457" width="457pt" xmlns="http://www.w3.org/2000/svg"><path d="m216.882812 38.730469h-30.984374c-4.277344 0-7.746094-3.46875-7.746094-7.746094 0-4.28125 3.46875-7.746094 7.746094-7.746094h30.984374c4.277344 0 7.746094 3.464844 7.746094 7.746094 0 4.277344-3.46875 7.746094-7.746094 7.746094zm0 0" fill="#36afad"/><path d="m92.949219 0h92.949219v123.933594h-92.949219zm0 0" fill="#ffd782"/><path d="m92.949219 170.40625h-61.964844v77.457031h30.980469v-46.472656h30.984375zm0 0" fill="#ffd782"/><path d="m61.96875 278.847656c0 8.554688-6.9375 15.492188-15.492188 15.492188-8.558593 0-15.492187-6.9375-15.492187-15.492188 0-8.558594 6.933594-15.492187 15.492187-15.492187 8.554688 0 15.492188 6.933593 15.492188 15.492187zm0 0" fill="#ffd782"/><path d="m92.949219 0h92.949219v30.984375h-92.949219zm0 0" fill="#238892"/><path d="m92.949219 154.914062h92.949219v147.171876h-92.949219zm0 0" fill="#cfdfe8"/><path d="m0 387.289062h30.984375v61.964844h-30.984375zm0 0" fill="#394d5c"/><path d="m201.390625 302.085938h-54.21875l-12.394531 30.980468h66.613281v85.203125h30.980469v-116.183593zm0 0" fill="#238892"/><g fill="#394d5c"><path d="m201.390625 418.269531h61.964844v30.984375h-61.964844zm0 0"/><path d="m38.730469 38.730469h46.472656v15.492187h-46.472656zm0 0"/><path d="m7.746094 38.730469h15.492187v15.492187h-15.492187zm0 0"/><path d="m15.492188 325.320312h15.492187v15.492188h-15.492187zm0 0"/><path d="m46.476562 325.320312h30.980469v15.492188h-30.980469zm0 0"/><path d="m147.171875 441.507812h30.980469v15.492188h-30.980469zm0 0"/><path d="m116.1875 441.507812h15.492188v15.492188h-15.492188zm0 0"/><path d="m147.171875 410.523438h46.472656v15.492187h-46.472656zm0 0"/></g><path d="m108.441406 302.085938-30.984375 85.203124h-46.472656v30.980469h69.710937l46.476563-116.183593zm0 0" fill="#36afad"/><path d="m216.882812 154.914062v30.984376h-61.96875c-8.554687 0-15.492187 6.9375-15.492187 15.492187s6.9375 15.492187 15.492187 15.492187h92.949219v-61.96875zm0 0" fill="#ffd782"/><path d="m247.863281 123.933594c0 8.554687-6.933593 15.492187-15.492187 15.492187-8.554688 0-15.488282-6.9375-15.488282-15.492187 0-8.558594 6.933594-15.492188 15.488282-15.492188 8.558594 0 15.492187 6.933594 15.492187 15.492188zm0 0" fill="#ffd782"/></svg>